<svg width="136" height="44" viewBox="0 0 136 44" fill="none" xmlns="http://www.w3.org/2000/svg">
<path d="M13.1211 10.5902H17.678C18.2344 10.5902 18.729 10.9214 18.9232 11.4225L30.713 41.4777C31.0398 42.3185 30.3951 43.2102 29.4678 43.2102H25.5556C24.9904 43.2102 24.487 42.862 24.3015 42.3524L22.0054 36.0425C21.9082 35.7877 21.6609 35.6093 21.3783 35.6093H8.86437L6.4181 42.3439C6.23264 42.862 5.72925 43.2017 5.16405 43.2017H1.33126C0.40397 43.2017 -0.240716 42.31 0.086043 41.4692L11.8759 11.414C12.0701 10.9129 12.5647 10.5817 13.1211 10.5817V10.5902ZM19.1175 30.6752C19.5768 30.6752 19.8947 30.242 19.7446 29.8259L18.4464 26.1996C17.1835 22.6072 16.2209 19.5839 15.3907 17.0191H15.2936C14.4723 19.5839 13.5008 22.6072 12.1408 26.4289L10.9044 29.8174C10.7543 30.2335 11.0722 30.6667 11.5314 30.6667H19.1087L19.1175 30.6752Z" fill="#F5F8FF"/>
<path d="M32.9297 17.5796C33.4949 17.5796 33.9983 17.9193 34.1838 18.4374L40.507 35.6603H40.5511L46.8302 18.4374C47.0157 17.9278 47.519 17.5796 48.0843 17.5796H51.8022C52.7295 17.5796 53.3742 18.4798 53.0474 19.3121L43.9777 42.3779C43.7834 42.879 43.2888 43.2017 42.7325 43.2017H38.2727C37.7163 43.2017 37.2217 42.8705 37.0274 42.3779L27.9577 19.3121C27.6309 18.4713 28.2756 17.5796 29.2029 17.5796H32.9297Z" fill="#F5F8FF"/>
<path d="M61.3754 7.74522H57.7899C57.0534 7.74522 56.4563 8.31936 56.4563 9.0276V12.1444C56.4563 12.8526 57.0534 13.4268 57.7899 13.4268H61.3754C62.1119 13.4268 62.7089 12.8526 62.7089 12.1444V9.0276C62.7089 8.31936 62.1119 7.74522 61.3754 7.74522Z" fill="#F5F8FF"/>
<path d="M61.3224 17.5796H57.887C57.1505 17.5796 56.5535 18.1538 56.5535 18.862V41.9278C56.5535 42.636 57.1505 43.2102 57.887 43.2102H61.3224C62.0589 43.2102 62.6559 42.636 62.6559 41.9278V18.862C62.6559 18.1538 62.0589 17.5796 61.3224 17.5796Z" fill="#F5F8FF"/>
<path d="M90.1743 7.74522H86.5888C85.8523 7.74522 85.2553 8.31936 85.2553 9.0276V12.1444C85.2553 12.8526 85.8523 13.4268 86.5888 13.4268H90.1743C90.9108 13.4268 91.5078 12.8526 91.5078 12.1444V9.0276C91.5078 8.31936 90.9108 7.74522 90.1743 7.74522Z" fill="#F5F8FF"/>
<path d="M90.1213 17.5796H86.6859C85.9494 17.5796 85.3524 18.1538 85.3524 18.862V41.9278C85.3524 42.636 85.9494 43.2102 86.6859 43.2102H90.1213C90.8578 43.2102 91.4548 42.636 91.4548 41.9278V18.862C91.4548 18.1538 90.8578 17.5796 90.1213 17.5796Z" fill="#F5F8FF"/>
<path d="M76.733 38.4119C74.693 38.4119 73.5361 37.5711 73.5361 35.38V22.3779H80.2479C80.9809 22.3779 81.5814 21.8004 81.5814 21.0955V18.8535C81.5814 18.1486 80.9809 17.5711 80.2479 17.5711H74.1984C73.8275 17.5711 73.5361 17.2824 73.5361 16.9342V11.8641C73.5361 11.1592 72.9356 10.5817 72.2026 10.5817H68.7142C67.9812 10.5817 67.3807 11.1592 67.3807 11.8641V36.2633C67.3807 40.9257 69.8976 43.2102 74.6488 43.2102H81.7227V39.6943C81.7227 38.9894 81.1222 38.4119 80.3892 38.4119H76.733Z" fill="#F5F8FF"/>
<path d="M104.693 44C99.509 44 95.4819 41.155 95.4819 35.7962C95.4819 29.9278 100.33 27.6858 105.611 27.6858H109.921C112.588 27.6858 113.798 26.6582 113.798 24.8917C113.798 22.5648 111.573 21.4437 108.711 21.4437C105.594 21.4437 103.518 22.7431 103.006 25.0955C102.909 25.5456 102.494 25.8684 102.008 25.8684H97.6368C97.0097 25.8684 96.5329 25.3248 96.63 24.7304C97.4336 19.8811 101.178 16.7813 108.614 16.7813C116.704 16.7813 119.909 20.5096 119.909 25.6815V36.6794C119.909 37.6306 120.713 38.4034 121.702 38.4034C122.267 38.4034 122.718 38.845 122.718 39.38V42.2251C122.718 42.7686 122.258 43.2017 121.702 43.2017H118.549C115.644 43.2017 114.045 41.8004 114.045 39.38V38.4034H113.948C112.253 42.225 108.808 43.9915 104.693 43.9915V44ZM106.583 39.2442C110.221 39.2442 113.807 37.0531 113.807 31.7452V29.3673H113.71C112.888 30.9554 111.334 31.7452 108.57 31.8386L106.583 31.9321C103.386 32.0255 102.026 33.5626 102.026 35.5669C102.026 37.5711 103.386 39.2442 106.583 39.2442Z" fill="#F5F8FF"/>
<path d="M126.868 12.6115C129.306 14.9554 129.076 17.9193 126.683 20.2208L125.906 20.9682C125.623 21.2399 125.173 21.2399 124.89 20.9682L121.949 18.1401C121.19 17.4098 121.19 16.2208 121.949 15.482L125.402 12.1614C125.685 11.8896 126.135 11.8896 126.418 12.1614L126.877 12.603L126.868 12.6115Z" fill="#ECA0FF"/>
<path d="M123.106 8.56051C120.669 6.21656 120.898 3.25265 123.292 0.951168L124.069 0.203822C124.352 -0.0679405 124.802 -0.0679405 125.085 0.203822L128.025 3.03185C128.785 3.76221 128.785 4.95117 128.025 5.69002L124.572 9.01062C124.29 9.28238 123.839 9.28238 123.557 9.01062L123.097 8.569L123.106 8.56051Z" fill="#ECA0FF"/>
<path d="M127.098 8.77282C129.535 6.42887 132.618 6.64968 135.011 8.95117L135.788 9.69851C136.071 9.97027 136.071 10.4034 135.788 10.6752L132.847 13.5032C132.088 14.2335 130.851 14.2335 130.083 13.5032L126.63 10.1826C126.347 9.91083 126.347 9.47771 126.63 9.20594L127.089 8.76433L127.098 8.77282Z" fill="#ECA0FF"/>
<path d="M122.885 12.3991C120.448 14.7431 117.366 14.5223 114.973 12.2208L114.195 11.4735C113.913 11.2017 113.913 10.7686 114.195 10.4968L117.092 7.71125C117.878 6.95541 119.159 6.95541 119.945 7.71125L123.345 10.9809C123.627 11.2527 123.627 11.6858 123.345 11.9575L122.885 12.3991Z" fill="#ECA0FF"/>
</svg>
